<?xml version="1.0" encoding="UTF-8"?>
<svg width="200px" height="200px" viewBox="0 0 200 200" version="1.1" xmlns="http://www.w3.org/2000/svg" xmlns:xlink="http://www.w3.org/1999/xlink">
    <!-- Generator: Sketch 41.2 (35397) - http://www.bohemiancoding.com/sketch -->
    <title>g-photos</title>
    <desc>Created with Sketch.</desc>
    <defs></defs>
    <g id="Page-1" stroke="none" stroke-width="1" fill="none" fill-rule="evenodd">
        <g id="g-photos" stroke-width="2" stroke="#FFFFFF">
            <g id="flower" transform="translate(20.000000, 20.000000)">
                <polygon id="Rectangle" points="40 40 80 40 80 60 75.1111111 75.1111111 60 80 40 80 0 80"></polygon>
                <polygon id="Rectangle-Copy-3" points="80 100 80 120 80 160 40 120 40 80 60 80 75.1111111 85.1111111"></polygon>
                <polygon id="Rectangle-Copy-2" points="100 80 120 80 160 80 120 120 80 120 80 100 85.1111111 85.1111111"></polygon>
                <polygon id="Rectangle-Copy" points="80 0 120 40 120 80 100 80 85.1111111 75.1111111 80 60 80 40"></polygon>
                <path d="M85.3333333,74.6666667 L120,40" id="Path-2"></path>
                <path d="M85.3333333,85.3333333 L120,120" id="Path-3"></path>
                <path d="M74.6666667,85.3333333 L40,120" id="Path-4"></path>
                <path d="M74.6666667,74.6666667 L40,40" id="Path-5"></path>
            </g>
        </g>
    </g>
</svg>