<?xml version="1.0" encoding="UTF-8"?>
<svg width="200px" height="200px" viewBox="0 0 200 200" version="1.1" xmlns="http://www.w3.org/2000/svg" xmlns:xlink="http://www.w3.org/1999/xlink">
    <!-- Generator: Sketch 41.2 (35397) - http://www.bohemiancoding.com/sketch -->
    <title>Artboard</title>
    <desc>Created with Sketch.</desc>
    <defs></defs>
    <g id="Page-1" stroke="none" stroke-width="1" fill="none" fill-rule="evenodd">
        <g id="Artboard" stroke="#FFFFFF" stroke-width="2">
            <g id="YouTube-icon" transform="translate(23.000000, 46.000000)">
                <path d="M61.0432755,74.4104734 L61.0363019,31.2812606 L102.608166,52.9206596 L61.0432755,74.4104734 Z M152.317623,23.8101223 C152.317623,23.8101223 150.814234,13.232484 146.201208,8.57389362 C140.350951,2.46061702 133.792875,2.4298883 130.785517,2.07215957 C109.255736,0.519489362 76.960483,0.519489362 76.960483,0.519489362 L76.8936528,0.519489362 C76.8936528,0.519489362 44.5984,0.519489362 23.0680377,2.07215957 C20.0606792,2.4298883 13.5055094,2.46061702 7.6529283,8.57389362 C3.03990189,13.232484 1.53883774,23.8101223 1.53883774,23.8101223 C1.53883774,23.8101223 0,36.231484 0,48.6528457 L0,60.2984521 C0,72.7198138 1.53883774,85.1411755 1.53883774,85.1411755 C1.53883774,85.1411755 3.03990189,95.7193936 7.6529283,100.377404 C13.5055094,106.490681 21.1933057,106.297612 24.6173358,106.938277 C36.9257132,108.115824 76.9273585,108.480511 76.9273585,108.480511 C76.9273585,108.480511 109.255736,108.431809 130.785517,106.879138 C133.792875,106.52083 140.350951,106.490681 146.201208,100.377404 C150.814234,95.7193936 152.317623,85.1411755 152.317623,85.1411755 C152.317623,85.1411755 153.854136,72.7198138 153.854136,60.2984521 L153.854136,48.6528457 C153.854136,36.231484 152.317623,23.8101223 152.317623,23.8101223 L152.317623,23.8101223 Z" id="Fill-18"></path>
            </g>
        </g>
    </g>
</svg>