<?xml version="1.0" encoding="UTF-8"?>
<svg width="200px" height="200px" viewBox="0 0 200 200" version="1.1" xmlns="http://www.w3.org/2000/svg" xmlns:xlink="http://www.w3.org/1999/xlink">
    <!-- Generator: Sketch 41.2 (35397) - http://www.bohemiancoding.com/sketch -->
    <title>movie-blog</title>
    <desc>Created with Sketch.</desc>
    <defs></defs>
    <g id="Page-1" stroke="none" stroke-width="1" fill="none" fill-rule="evenodd">
        <g id="movie-blog" stroke="#FFFFFF" stroke-width="2">
            <path d="M109,44 L93,44 L92,44 L75,92.5 L58,44 L57,44 L40,44 L40,157 L58,157 L58,91.5 L66.5,116 L83.5,116 L92,91.5 L92,157 L101,157 L126.5,157 C145.558013,157 161,141.553824 161,122.5 C161,110.320086 154.691092,99.6171183 145.163554,93.4780946 C152.258651,89.1859565 157,81.3956166 157,72.49746 L157,68.50254 C157,54.9655567 146.030976,44 132.5,44 L109,44 Z M110,62 L127.49678,62 C133.849833,62 139,67.1473289 139,73.5 C139,79.8512746 133.848798,85 127.49678,85 L110,85 L110,62 Z M110,103 L126.5,103 C135.612698,103 143,110.39378 143,119.498623 L143,122.501377 C143,131.613315 135.614702,139 126.5,139 L110,139 L110,103 Z" id="Combined-Shape"></path>
        </g>
    </g>
</svg>